<?xml version="1.0" standalone="no"?><!DOCTYPE svg PUBLIC "-//W3C//DTD SVG 1.1//EN" "http://www.w3.org/Graphics/SVG/1.1/DTD/svg11.dtd"><svg t="1515656667188" class="icon" style="" viewBox="0 0 1024 1024" version="1.1" xmlns="http://www.w3.org/2000/svg" p-id="3314" xmlns:xlink="http://www.w3.org/1999/xlink" width="200" height="200"><defs><style type="text/css"></style></defs><path d="M512 0C229.312 0 0 229.248 0 512c0 282.752 229.248 512 512 512 282.688 0 512-229.248 512-512C1024 229.248 794.752 0 512 0zM512 960c-246.976 0-448-201.024-448-448 0-247.04 201.024-448 448-448 246.976 0 448 201.024 448 448C960 758.976 758.976 960 512 960z" p-id="3315" fill="#ffffff"></path><path d="M444.16 585.472 319.68 461.056 263.168 517.632 444.16 698.624 760.896 381.824 704.384 325.312Z" p-id="3316" fill="#ffffff"></path></svg>