<?xml version="1.0" standalone="no"?><!DOCTYPE svg PUBLIC "-//W3C//DTD SVG 1.1//EN" "http://www.w3.org/Graphics/SVG/1.1/DTD/svg11.dtd"><svg class="icon" width="28px" height="28.00px" viewBox="0 0 1024 1024" version="1.1" xmlns="http://www.w3.org/2000/svg"><path d="M508.877 966.384a28.26 28.26 0 0 1-20.044-8.303L379.384 848.632h-275.79c-48.179 0-87.375-39.197-87.375-87.377V177.986c0-48.18 39.196-87.377 87.375-87.377h554.551c15.655 0 28.347 12.691 28.347 28.347s-12.691 28.347-28.347 28.347H103.594c-16.918 0-30.683 13.765-30.683 30.684v583.269c0 16.919 13.765 30.684 30.683 30.684h287.531a28.343 28.343 0 0 1 20.044 8.303l97.708 97.708 97.708-97.708a28.347 28.347 0 0 1 20.044-8.303h287.53c16.919 0 30.683-13.765 30.683-30.684V340.112c0-15.655 12.691-28.347 28.347-28.347s28.347 12.691 28.347 28.347v421.143c0 48.18-39.196 87.377-87.376 87.377H638.371l-109.45 109.449c-5.534 5.535-12.789 8.303-20.044 8.303zM560.551 543.5a28.24 28.24 0 0 1-19.358-7.646c-11.433-10.693-12.032-28.632-1.338-40.065L965.84 40.375c10.693-11.434 28.633-12.032 40.065-1.338 11.433 10.694 12.032 28.632 1.338 40.065L581.258 534.518c-5.58 5.965-13.135 8.982-20.707 8.982z m-94.484-34.079H168.653c-15.655 0-28.346-12.691-28.346-28.346s12.691-28.347 28.346-28.347h297.414c15.655 0 28.347 12.691 28.347 28.347s-12.691 28.346-28.347 28.346z m97.454-153.354H168.653c-15.655 0-28.346-12.691-28.346-28.347s12.691-28.346 28.346-28.346H563.52c15.655 0 28.347 12.691 28.347 28.346s-12.691 28.347-28.346 28.347z" fill="#373C45" /></svg>