<?xml version="1.0" standalone="no"?><!DOCTYPE svg PUBLIC "-//W3C//DTD SVG 1.1//EN" "http://www.w3.org/Graphics/SVG/1.1/DTD/svg11.dtd"><svg class="icon" width="28px" height="24.72px" viewBox="0 0 1160 1024" version="1.1" xmlns="http://www.w3.org/2000/svg"><path d="M148.6848 68.266667C104.311467 68.266667 68.266667 104.2432 68.266667 148.6848v726.6304C68.266667 919.688533 104.2432 955.733333 148.6848 955.733333h863.163733c44.373333 0 80.418133-35.976533 80.418134-80.418133V148.6848C1092.266667 104.311467 1056.290133 68.266667 1011.848533 68.266667H148.6848z m0-68.266667h863.163733C1093.973333 0 1160.533333 66.56 1160.533333 148.6848v726.6304A148.6848 148.6848 0 0 1 1011.848533 1024H148.6848A148.6848 148.6848 0 0 1 0 875.3152V148.6848C0 66.56 66.56 0 148.6848 0z" fill="#373C45" /><path d="M563.2 661.504l176.401067-176.3328a31.061333 31.061333 0 0 1 43.963733 43.963733L590.506667 722.261333a31.1296 31.1296 0 0 1-39.5264 3.6864 30.993067 30.993067 0 0 1-20.343467-9.079466L452.471467 638.634667c-10.922667-10.922667-9.966933-29.559467 2.184533-41.710934s30.856533-13.175467 41.7792-2.2528l66.833067 66.901334zM38.5024 290.133333v-68.266666h1083.733333v68.266666H38.434133z" fill="#373C45" /></svg>