<?xml version="1.0" standalone="no"?><!DOCTYPE svg PUBLIC "-//W3C//DTD SVG 1.1//EN" "http://www.w3.org/Graphics/SVG/1.1/DTD/svg11.dtd"><svg class="icon" width="28px" height="24.32px" viewBox="0 0 1179 1024" version="1.1" xmlns="http://www.w3.org/2000/svg"><path d="M735.666424 465.051152c-12.505212 5.647515-24.079515 8.564364-31.495757 18.928484-22.49697 31.77503 2.792727 85.085091 47.786666 75.589819 55.885576-11.605333 51.075879-97.124848-16.290909-94.518303z" fill="#373C45" /><path d="M806.043152 359.237818c-48.686545 0-110.312727-5.833697-145.966546 8.812606-42.201212 17.345939-71.524848 53.713455-80.523636 104.665212-19.114667 108.140606 33.078303 175.879758 108.202666 191.643152l22.341819 0.186182H1159.912727V321.287758h-0.124121c0-137.929697 7.323152-225.590303-74.224485-283.710061C1020.741818-8.533333 911.204848 2.296242 801.109333 2.296242H184.444121c-13.34303 2.482424-26.872242 5.08897-40.246303 7.540364A190.743273 190.743273 0 0 0 38.477576 93.121939C8.254061 143.018667 14.522182 230.337939 14.522182 311.233939V708.421818c0 65.473939-7.633455 148.169697 11.357091 196.732121 51.075879 130.234182 170.046061 117.294545 347.322182 117.294546h335.716848v-58.150788H364.419879c-61.067636 0-163.746909 10.581333-210.199273-7.540364-90.980848-35.622788-80.523636-117.077333-80.523636-240.795151V350.332121c0.434424-62.619152 0.775758-125.269333 1.241212-187.795394 9.991758-45.769697 39.346424-79.003152 79.282424-94.549333 31.71297-12.412121 84.433455-7.540364 127.069091-7.540364h601.584485c87.939879 0 153.506909-2.048 191.301818 46.638546 38.570667 49.803636 26.996364 164.491636 26.437818 252.152242h-294.570666z m294.539636 248.335515H787.269818c-75.900121 0-135.602424 4.747636-148.44897-58.026666-9.091879-44.156121 1.799758-98.024727 22.621091-114.688 28.237576-22.652121 83.316364-17.687273 134.609455-17.687273h304.531394v190.401939z" fill="#373C45" /><path d="M1151.751758 714.938182c-16.446061-16.508121-41.115152-16.508121-49.338182 0L896.775758 937.425455l-82.230303-82.416485c-16.446061-16.477091-41.146182-16.477091-49.338182 0-8.254061 16.477091-16.477091 41.208242 0 49.431272l115.122424 107.116606c16.446061 16.477091 41.115152 16.477091 49.338182 0l230.306909-255.441454c0-8.22303 0-32.954182-8.22303-41.208242z" fill="#373C45" /></svg>