<?xml version="1.0" standalone="no"?><!DOCTYPE svg PUBLIC "-//W3C//DTD SVG 1.1//EN" "http://www.w3.org/Graphics/SVG/1.1/DTD/svg11.dtd"><svg class="icon" width="28px" height="24.93px" viewBox="0 0 1150 1024" version="1.1" xmlns="http://www.w3.org/2000/svg"><path d="M1011.919101 921.6c0 23.011236-18.98427 41.995506-41.995505 41.995506H102.4c-23.011236 0-41.995506-18.98427-41.995506-41.995506V102.4c0-23.011236 18.98427-41.995506 41.995506-41.995506h866.948315c23.011236 0 41.995506 18.98427 41.995505 41.995506V287.640449h60.404495V102.4c0-56.377528-46.022472-102.4-102.4-102.4H102.4C46.022472 0 0 46.022472 0 102.4v819.2C0 977.977528 46.022472 1024 102.4 1024h866.948315c56.377528 0 102.4-46.022472 102.4-102.4V730.606742h-60.404495v190.993258z" fill="#373C45" /><path d="M975.676404 337.114607h-361.276404C517.752809 337.114607 439.514607 415.352809 439.514607 512s78.238202 174.885393 174.885393 174.885393h361.276404c96.647191 0 174.885393-78.238202 174.885394-174.885393s-78.238202-174.885393-174.885394-174.885393m0 289.366292h-361.276404c-62.705618 0-114.480899-51.2-114.480899-114.480899 0-63.280899 51.2-114.480899 114.480899-114.480899h361.276404c62.705618 0 114.480899 51.2 114.480899 114.480899 0 63.280899-51.2 114.480899-114.480899 114.480899" fill="#373C45" /><path d="M624.755056 512c0 29.914607 24.161798 54.076404 54.076405 54.076404s54.076404-24.161798 54.076404-54.076404-24.161798-54.076404-54.076404-54.076404c-29.339326 0-54.076404 24.161798-54.076405 54.076404" fill="#373C45" /></svg>