<?xml version="1.0" standalone="no"?><!DOCTYPE svg PUBLIC "-//W3C//DTD SVG 1.1//EN" "http://www.w3.org/Graphics/SVG/1.1/DTD/svg11.dtd"><svg class="icon" width="28px" height="28.00px" viewBox="0 0 1024 1024" version="1.1" xmlns="http://www.w3.org/2000/svg"><path d="M619.52 685.696c68.48-60.224 111.936-148.352 111.936-246.848 0-181.76-147.392-329.152-329.152-329.152-181.824 0-329.216 147.328-329.216 329.152 0 98.496 43.456 186.624 111.936 246.848C73.856 757.312 0 881.92 0 1024l73.152 0c0-127.552 72.768-237.952 178.816-292.544C297.088 754.624 348.032 768 402.304 768c54.208 0 105.216-13.376 150.336-36.544 106.048 54.656 178.816 164.992 178.816 292.544l73.152 0C804.544 881.92 730.688 757.312 619.52 685.696zM402.304 694.848c-141.44 0-256-114.624-256-256 0-141.376 114.56-256 256-256 141.376 0 256 114.624 256 256C658.304 580.224 543.68 694.848 402.304 694.848zM860.864 554.752c55.616-58.944 89.984-138.176 89.984-225.6C950.848 147.328 803.52 0 621.696 0 557.824 0 498.368 18.56 447.872 50.048c40.832 8.32 74.624 19.648 110.656 31.296C578.752 76.16 599.872 73.152 621.696 73.152c141.376 0 256 114.624 256 256 0 79.36-36.096 150.336-92.8 197.312-3.136 30.912-6.272 61.824-9.344 92.8 9.472-4.992 19.072-9.856 27.968-15.808 88.832 58.944 147.392 159.744 147.392 274.24L1024 877.696C1024 745.28 959.68 628.096 860.864 554.752z" fill="#E60103" /></svg>