<?xml version="1.0" standalone="no"?><!DOCTYPE svg PUBLIC "-//W3C//DTD SVG 1.1//EN" "http://www.w3.org/Graphics/SVG/1.1/DTD/svg11.dtd"><svg class="icon" width="28px" height="23.99px" viewBox="0 0 1195 1024" version="1.1" xmlns="http://www.w3.org/2000/svg"><path d="M682.895 299.603v214.04h214.21c23.16 0 41.971 18.17 41.971 40.606s-18.81 43.294-41.971 43.294H640.923c-23.204 0-43.294-20.858-43.294-43.294V299.603c0-22.436 20.09-40.607 43.294-40.607 23.161 0 41.972 18.171 41.972 40.607z m356.717 574.51C939.716 970.768 806.891 1024 665.62 1024c-139.351 0-270.854-51.996-370.324-146.39-16.55-15.696-16.806-41.417-0.597-57.412 16.251-16.038 42.825-16.294 59.375-0.554 83.687 79.38 194.332 123.142 311.546 123.142 245.347 0 444.969-193.18 444.969-430.594 0-237.413-199.622-430.552-444.969-430.552-245.347 0-444.969 193.139-444.969 430.552 0 19.024 1.365 37.877 3.882 56.517l69.953-75.626c15.483-16.72 42.014-18.128 59.289-3.2 17.275 14.972 18.725 40.65 3.284 57.37L228.33 686.435c-8.318 8.958-19.792 13.522-31.308 13.522-1.11 0-2.176-0.213-3.285-0.299a42.325 42.325 0 0 1-8.658 0.896c-10.067 0-20.176-3.498-28.195-10.536L13.95 564.486c-17.19-15.1-18.47-40.777-2.858-57.413 15.569-16.592 42.1-17.829 59.29-2.772l69.184 60.825c-1.876-17.531-2.857-35.19-2.857-52.934 0-136.707 55.024-265.224 154.92-361.879C391.524 53.616 524.349 0.383 665.62 0.383c141.27 0 274.096 53.233 373.992 149.93 99.896 96.655 154.92 225.172 154.92 361.879 0 136.707-54.98 265.267-154.92 361.921z" fill="#E60103" /></svg>